<svg xmlns="http://www.w3.org/2000/svg" viewBox="0 0 19.7 16"><g data-name="Vrstva 2"><path d="M17.68 4v.52A11.41 11.41 0 016.2 16 11.41 11.41 0 010 14.19c.33 0 .64.05 1 .05a8.1 8.1 0 005-1.73 4 4 0 01-3.78-2.8 4.81 4.81 0 00.78.06 4.66 4.66 0 001-.13 4 4 0 01-3.24-4 4.13 4.13 0 001.82.51A4.07 4.07 0 01.82 2.77a4 4 0 01.55-2A11.47 11.47 0 009.7 5a4.71 4.71 0 01-.1-1 4 4 0 017-2.77 7.93 7.93 0 002.56-1 4 4 0 01-1.78 2.22 7.94 7.94 0 002.32-.55 8.91 8.91 0 01-2 2.09z" fill="#010101" data-name="Vrstva 1"/></g></svg>