<svg version="1.0" xmlns="http://www.w3.org/2000/svg" width="933.33" height="933.33" viewBox="0 0 700 700"><path d="M327.8.5c-.1.1-4.2.5-8.9.9s-9.5.8-10.5 1c-1 .2-4.1.7-6.9 1-42.8 5.6-87.5 21-127 43.9-10.3 6-26.5 16.5-31.5 20.4-.8.6-5.1 4-9.5 7.4-35.1 27.3-67.4 65.2-89.7 105.4-4.9 8.7-14.8 28.9-14.8 30.1 0 .2-.9 2.3-2 4.7-5.7 12.3-15.7 43.5-18.6 58.2-.2 1.1-1 5.4-1.9 9.5-2.9 14.7-3.6 20-5.2 37-1.5 16.5-.8 59.2 1.2 71.1.2 1.3.6 4.6.9 7.4.9 7.8 2.3 15.6 5.1 28.5 3 14.1 11 39.3 17.3 55.1 5 12.5 15.6 33.7 22.6 45.3 3.6 6 6.6 11.1 6.6 11.3 0 .2.5.9 1 1.6.6.7 4 5.5 7.6 10.7 36.9 52.8 89.1 95.1 149.3 120.9 27 11.6 59.8 20.8 88 24.7 2.5.3 5.7.8 7.1 1 16.3 2.5 68.2 2.5 84.2-.1 1.3-.2 4.6-.7 7.3-1 7.2-1 8.6-1.2 12-1.9 1.7-.3 4.4-.8 6-1.1 19-3.6 42.4-10.6 62.8-18.6 48.5-19.3 96.4-52.9 130.6-91.8 3.1-3.5 6.3-7.1 7.1-8 1.3-1.4 6.7-8.2 9.2-11.6.4-.6 1.8-2.4 3.1-4 14.2-18.1 32.9-51 43.2-76 6.8-16.4 15.1-42.6 18.1-57 1.6-7.9 5.4-30.1 5.9-35 .4-3.3.9-7.1 1.1-8.5.9-4.6 1.1-52.4.4-60.5-1.2-12.8-2.1-20.2-2.5-22.7-.3-1.3-.8-4.3-1.1-6.8-.3-2.5-2.1-11.3-4-19.5-5.1-23.2-10.1-38.5-19.6-61-38.7-91.1-116-162.5-210.3-194.3-16.8-5.7-42-11.9-55.5-13.7-1.9-.3-4.6-.7-6-1-1.3-.2-5.2-.7-8.6-1.1-3.3-.3-7.4-.8-9-1-3.2-.5-54-1.4-54.6-.9zm81.7 128.7c1.7.4 5.9.9 9.5 1.3 3.6.4 7.4.9 8.5 1.1 1 .2 3.7.6 6 1 21.3 3.1 48.9 12.6 65.2 22.4 29.6 18 45.8 41.9 50.8 75 1.2 8.1 1.4 33 .2 37.7-.3 1.1-.9 4.3-1.3 7-1 6.6-5.7 20.9-9.8 29.7-3 6.4-12.6 21.6-15.9 25.2-15.9 17.1-28.8 27.1-47 36.3-17.4 8.9-41.2 16.5-57.7 18.6-9.9 1.3-17.9 1.9-26.9 1.9l-10.4.1-4-6.5c-2.2-3.6-5.1-8.4-6.4-10.8l-2.4-4.2 2.8-.1c1.5 0 3.5-.2 4.3-.3.8-.2 4.2-.7 7.5-1.1 22.6-2.7 44.1-12.3 57.8-25.7 18.4-18 26.9-41 26.9-72.2-.1-13-1-21.1-3.7-31.6-6.6-25.8-25-48.6-49-60.8-10.1-5.1-23.7-10-32.2-11.6-1.5-.3-4.1-.8-5.8-1.1-7.1-1.5-16.9-2.3-30-2.4l-14-.2-3.5 3.6-3.5 3.6-.1 63.7c0 35-.4 63.8-.8 64-.4.2-6.9-9.7-14.3-22-13.3-21.9-34.5-56.5-40.8-66.3-1.7-2.8-7.8-12.4-13.5-21.5s-11.7-18-13.4-19.8c-5.6-6-16.4-10.6-34.8-14.6-6.5-1.4-12-2.6-12.3-2.6-.3 0-.5-4.1-.5-9.1v-9l105.8.4c58.1.2 107.1.6 108.7.9zm-137 165.3c4.4 7.7 35.8 61.1 40.1 68.2 2.4 4 4.4 7.7 4.4 8.3 0 .5.5 1 1 1 .6 0 1 .4 1 .9 0 .6 1.5 3.4 3.3 6.4l3.2 5.4-.1 67.4c-.1 64.4-.4 73.1-2.5 84.3-.5 2.7-.7 5.1-.5 5.3.2.2 2.1.6 4.2.8 6.9.7 15.7 1.5 22.4 2 3.6.3 8.1.7 10.1 1 1.9.2 7.6.7 12.5 1.1 4.9.4 9.6.8 10.4 1 .8.1 2.5.3 3.8.3 2 .1 2.3.5 1.8 3.3-.3 1.8-.8 5.8-1.2 8.9-.3 3.1-1 6.2-1.4 6.8-.5.9-6.6 1.4-20.1 1.6-10.7.2-30.6.7-44.4 1-13.7.3-35.1.8-47.5 1-12.4.3-33.4.7-46.7 1l-24.1.6-.1-11.1c-.1-8.1.2-11.2 1.1-11.4.7-.2 4.7-1.1 8.9-2 14.3-3.2 26.3-10.5 32.1-19.5 6.4-10.1 6.1-2.7 6.1-143.4V256.9l9.9 16.8c5.5 9.2 11 18.6 12.3 20.8z"/></svg>