<svg xmlns="http://www.w3.org/2000/svg" viewBox="0 0 95.03 13.71"><defs><style>.cls-1{fill:#a8a7a7}</style></defs><g id="Vrstva_2" data-name="Vrstva 2"><g id="Vrstva_1-2" data-name="Vrstva 1"><path class="cls-1" transform="rotate(23.85 11.547 7.949)" d="M-.45 6.94h24v2h-24z"/><path class="cls-1" transform="rotate(158.85 11.551 7.941)" d="M-.45 6.94h24v2h-24z"/><path class="cls-1" d="M33.31 3.42h7.38v1.13L35 11.18h5.67v1.29h-7.53v-1.14l5.66-6.62h-5.49zM49.64 3.42l4 9.05h-1.5l-.78-1.8h-5l-.78 1.8h-1.49l4-9zm-2.75 6h3.94l-2-4.54zM59.72 12.47l-3.86-9h1.51l3.13 7.42 3.13-7.42h1.52l-3.88 9.05zM69.24 3.42h4.13a3 3 0 013.29 3 2.89 2.89 0 01-1.85 2.78l2.34 3.23h-1.66l-2.14-3h-2.73v3h-1.38zm3.87 4.8c1.48 0 2.12-.74 2.12-1.76s-.64-1.76-2.12-1.76h-2.49v3.52zM74.38.44l-1.44 1-1.43-1-.69.87 2.12 1.5 2.13-1.5zM81.09 2.38L82.86 0l1 .83-1.79 2zm1.87 1v9.05h-1.38v-9zM87.26 3.42H95v1.29h-3.2v7.76h-1.34V4.71h-3.2z"/></g></g></svg>