<svg xmlns="http://www.w3.org/2000/svg" viewBox="0 0 459.93 94.22"><defs><clipPath id="clip-path"><path fill="none" d="M0 0h459.93v94.22H0z"/></clipPath><style>.cls-3{fill:#12100b}</style></defs><g id="Vrstva_2" data-name="Vrstva 2"><g clip-path="url(#clip-path)" id="Vrstva_1-2" data-name="Vrstva 1"><path class="cls-3" d="M117.8 81.06L92.54 16.94l-5.7 1.24L60 84.2c-.92 2.37-3 4.74-7.65 5.19v3.5h21.7l.58-3.5-9.72-1.24 7.3-18.82 1.61-1.12h25.9L106 84.77c1.27 3.38-1.49 4.28-4.69 4.4v4s14.87-.33 19.54-.33h4.82l.45-3.27c-3.88-.57-5.82-2-8.33-8.56M74.63 62.92L86.6 32c.56 2 1.69 5.3 2.49 7.67l8.7 23.21zM135.8 89.39c4.92-.56 7.9-3.27 7.9-7.33V22.82h-10.64c-7.65 0-11.08 2.26-15.53 13.75h-4.12l3.59-19.5a37.91 37.91 0 007.66.68h54.72a48.16 48.16 0 008.22-.68l-3.6 19.5h-4.2c.32-11.49-3.43-13.75-12.12-13.75h-10.39L156 24.07v58a32.08 32.08 0 01-.58 6.08l11.43 1-.48 3.39-30.61.67zM265.54 89.39c4.91-.56 7.89-3.27 7.89-7.09V29c0-5.41 0-6.54-8.12-8.21v-3.06h8.57c12.1 0 15.08-.45 15.08-.45l.56.45s-3.76 4.51-3.76 13.86V82.3a30.27 30.27 0 01-.57 5.85l10.39 1-.45 3.38-29.59.68zM345.06 16.38c-27.76 0-42.39 19.94-42.39 40 0 19.83 14.39 37.84 39.18 37.84 26.52 0 42.63-20.71 42.63-41.56 0-19.49-14.07-36.28-39.42-36.28m-.7 72.9c-17.93 0-28-19.16-28-35.94 0-16.34 9.36-32 26.39-32 18.17 0 27.87 17.47 27.87 34.27 0 16.54-9.36 33.67-26.28 33.67M408.17 89.39c4.92-.56 7.9-3.27 7.9-7.33V22.82h-10.64c-7.65 0-11.08 2.26-15.53 13.75h-4.12l3.54-19.5a38 38 0 007.66.68h54.72a48.36 48.36 0 008.23-.68l-3.54 19.5h-4.22c.34-11.49-3.43-13.75-12.12-13.75h-10.39l-1.25 1.25v58a32.08 32.08 0 01-.58 6.08l11.42 1-.45 3.39-30.63.67zM212.18 88.15l10.28 1-.46 3.4-29.48.68v-3.84c4.8-.56 7.89-3.16 7.89-7v-42.8l12.32 21.75V82.4a28.92 28.92 0 01-.56 5.75M261.19 89.05l-.45 3.84h-19l-.46-.34a83.9 83.9 0 00-6.85-12.41c-4-6.13-7.46-12.06-15.47-25h2.91c6 0 13-5.41 13-16.11 0-8.78-4.67-16.22-17.24-16.22H214l-1.26 1.24V45.1q-6.47-10.56-13.17-21a6.93 6.93 0 00-3.55-2.2c-.24-.09-.48-.16-.72-.23h-.08q-1.91-.53-3.84-.9v-3.04h29c20.33 0 28.1 8.57 28.1 18.14 0 10-8.91 16.92-14.63 20.06v1.69l16.47 24.12c4.78 6.76 7 7 9.58 7.2zM65 26.13C65 48 47.7 53.36 34.67 52.83l-2.14-3.66c11.94-.66 18.73-8.44 18.73-22.43C51.26 11.13 35.64 5.08 25 5.08h-2.19l-1.26 1.25v22.19C17.23 21.1 12.69 13.73 8.22 6.41a6.64 6.64 0 00-3.6-2.23L4.23 4C3.1 3.71 1.73 3.39 0 3V0h30.13C46.57 0 65 7.65 65 26.12zM21 88l10.88 1-.47 3.39L1.15 93v-3.81c4.81-.57 7.91-3.17 7.91-7V21.92l12.49 21.79V82.2A28.48 28.48 0 0121 88z"/></g></g></svg>