<svg xmlns="http://www.w3.org/2000/svg" viewBox="0 0 82.31 12"><defs><style>.cls-1{fill:#1d1d1b}</style></defs><g id="Vrstva_2" data-name="Vrstva 2"><g id="Vrstva_1-2" data-name="Vrstva 1"><path class="cls-1" d="M0 0h24v2H0zM0 5h24v2H0zM0 10h24v2H0zM34.05 10.48v-9.1h1.41L39 7.53l3.55-6.15H44v9.1h-1.42V3.89l-3 5.2h-1.12l-3-5.2v6.59zM49.22 1.38H56v1.3h-5.4v2.6H55v1.27h-4.4v2.63H56v1.3h-6.78zM60.68 10.48v-9.1h1.39l5.52 7v-7H69v9.1h-1.42l-5.52-7v7zM82.31 1.38v5.26a4.1 4.1 0 01-8.2 0V1.38h1.37v5.15a2.73 2.73 0 105.45 0V1.38z"/></g></g></svg>