<svg xmlns="http://www.w3.org/2000/svg" viewBox="0 0 71.37 71.36"><g data-name="Vrstva 2"><path d="M56.17 25.29c0 9.74-9.28 14.43-17.35 14.11l-1.34-2.19c7.41-.4 10.18-4.83 10.18-10.11 0-7.63-5.76-11-12.36-11H34l-.78.74v13.28c-2.68-4.45-5.4-8.85-8.18-13.24a4.11 4.11 0 00-2.23-1.33l-.24-.09c-.7-.19-1.55-.38-2.63-.59V13h18.6c8.32 0 17.68 2.64 17.68 12.24zM39.27 57.9l-18.66.41V56c3-.34 4.9-1.89 4.9-4.19V26.17l7.66 13v12.66a16.35 16.35 0 01-.35 3.44l6.75.6zM35.68 0a35.68 35.68 0 1035.69 35.68A35.68 35.68 0 0035.68 0" data-name="Vrstva 1"/></g></svg>